<svg width="882" height="162" viewBox="0 0 882 162" fill="none" xmlns="http://www.w3.org/2000/svg">
<path d="M181.729 0V162H216.199V114.94H229.523V162H297.523V128.06H264.005V114.94H297.523V0H181.729ZM263.042 80.9887H216.199V33.9401H263.042V80.9887Z" fill="#A4A6A7"/>
<path d="M396.028 128.049H349.185V0H314.715V162H430.51V0H396.028V128.049Z" fill="#A4A6A7"/>
<path d="M447.709 0V97.97H529.022V128.049H447.709V162H563.492V64.03H482.179V33.9401H563.492V0H447.709Z" fill="#A4A6A7"/>
<path d="M580.691 0V33.9401H621.354V162H655.824V33.9401H696.486V0H580.691Z" fill="#A4A6A7"/>
<path d="M164.53 0H0V162H164.53V0Z" fill="#CD412B"/>
<path d="M53.8722 73.1078L18.9434 67.3721V101.764L53.8722 96.0394V73.1078Z" fill="#1E2020"/>
<path d="M71.3364 73.1079H59.6973V96.0395H71.3364V73.1079Z" fill="#1E2020"/>
<path d="M97.5408 53.044L103.355 18.6523H68.4258L74.2511 53.044H97.5408Z" fill="#1E2020"/>
<path d="M97.5416 58.7798H74.252V70.2399H97.5416V58.7798Z" fill="#1E2020"/>
<path d="M85.8941 76.4671L77.6641 84.5706L85.8941 92.674L94.1241 84.5706L85.8941 76.4671Z" fill="#1E2020"/>
<path d="M100.303 114.974L120.875 143.336L145.575 119.016L116.77 98.7603L100.303 114.974Z" fill="#1E2020"/>
<path d="M104.407 86.5898L87.9453 102.812L96.1719 110.918L112.633 94.6967L104.407 86.5898Z" fill="#1E2020"/>
<path d="M771.998 74.5529H738.468V107.793H713.596V74.5529H680.25V50.7068H713.596V17.4668H738.457V50.7068H771.987V74.5529H771.998Z" fill="#A4A6A7"/>
<path d="M771.998 74.5529H738.468V107.793H713.596V74.5529H680.25V50.7068H713.596V17.4668H738.457V50.7068H771.987V74.5529H771.998Z" fill="#A4A6A7" transform="matrix(1, 0, 0, 1, 110, 0)"/>
</svg>